<?xml version="1.0" encoding="utf-8"?>
<!-- Generator: Adobe Illustrator 27.0.0, SVG Export Plug-In . SVG Version: 6.00 Build 0)  -->
<svg version="1.1" id="Layer_1" xmlns="http://www.w3.org/2000/svg" xmlns:xlink="http://www.w3.org/1999/xlink" x="0px" y="0px"
	 viewBox="0 0 700 700" style="enable-background:new 0 0 700 700;" xml:space="preserve">
<style type="text/css">
	.st0{fill:#FFFFFF;}
</style>
<g>
	<path class="st0" d="M490,358.2h-52.5c-4.8,0-8.8-3.9-8.8-8.8s3.9-8.8,8.8-8.8H490c4.8,0,8.8,3.9,8.8,8.8S494.8,358.2,490,358.2z
		 M420,349.4c0-4.8-3.9-8.8-8.8-8.8h-35c-4.8,0-8.8,3.9-8.8,8.8s3.9,8.8,8.8,8.8h35C416.1,358.2,420,354.3,420,349.4z M358.8,349.4
		c0-4.8-3.9-8.8-8.8-8.8h-26.2c-4.8,0-8.8,3.9-8.8,8.8s3.9,8.8,8.8,8.8H350C354.8,358.2,358.8,354.3,358.8,349.4z"/>
	<path class="st0" d="M591.3,343.2L525,277V174.4h-87.5v15.1l-81.3-81.4c-3.4-3.4-9-3.4-12.4,0L108.7,343.2
		c-2.4,2.5-3.2,6.3-1.8,9.5c1.3,3.3,4.5,5.4,8,5.4h68.9v227.5c0,4.8,3.9,8.8,8.8,8.8h113.8c4.8,0,8.8-3.9,8.8-8.8V454.4H394v131.2
		c0,4.8,3.9,8.8,8.8,8.8h113.7c4.8,0,8.8-3.9,8.8-8.8V358.2h60.1c3.5,0,6.7-2.1,8.1-5.4C594.6,349.5,593.8,345.8,591.3,343.2
		L591.3,343.2z M455,191.9h52.5v67.6L455,207V191.9z M516.2,340.7c-4.8,0-8.8,3.9-8.8,8.8V437H455c-4.8,0-8.8,3.9-8.8,8.8
		s3.9,8.8,8.8,8.8h52.5v17.5H455c-4.8,0-8.8,3.9-8.8,8.8s3.9,8.8,8.8,8.8h52.5v17.5H455c-4.8,0-8.8,3.9-8.8,8.8
		c0,4.9,3.9,8.8,8.8,8.8h52.5v17.5H455c-4.8,0-8.8,3.9-8.8,8.8s3.9,8.8,8.8,8.8h52.5v17.5h-96.2V445.7c0-4.8-3.9-8.8-8.8-8.8h-96.2
		c-4.8,0-8.8,3.9-8.8,8.8v131.2h-96.2V349.4c0-4.8-3.9-8.8-8.8-8.8H136l214-214l214,214h-47.8V340.7z"/>
</g>
</svg>
