<?xml version="1.0" encoding="utf-8"?>
<!-- Generator: Adobe Illustrator 27.0.0, SVG Export Plug-In . SVG Version: 6.00 Build 0)  -->
<svg version="1.1" id="Layer_1" xmlns="http://www.w3.org/2000/svg" xmlns:xlink="http://www.w3.org/1999/xlink" x="0px" y="0px"
	 viewBox="0 0 700 700" style="enable-background:new 0 0 700 700;" xml:space="preserve">
<style type="text/css">
	.st0{fill-rule:evenodd;clip-rule:evenodd;fill:#FFFFFF;}
</style>
<path class="st0" d="M175,151.7c-45.1,0-81.7,36.6-81.7,81.7v233.3c0,45.1,36.6,81.7,81.7,81.7h350c45.1,0,81.7-36.6,81.7-81.7
	V233.3c0-45.1-36.6-81.7-81.7-81.7L175,151.7z M125.8,201.9c10.4-16.2,28.5-26.9,49.2-26.9h350c20.6,0,38.8,10.7,49.2,26.9
	L380,318.4c-18.5,11.1-41.6,11.1-60,0L125.8,201.9z M117.4,224.1c-0.5,3-0.7,6.1-0.7,9.3v233.3c0,32.2,26.1,58.3,58.3,58.3h350
	c32.2,0,58.3-26.1,58.3-58.3V233.3c0-3.2-0.2-6.3-0.7-9.3L392,338.4c-25.9,15.5-58.2,15.5-84,0L117.4,224.1z"/>
</svg>
