<?xml version="1.0" encoding="utf-8"?>
<!-- Generator: Adobe Illustrator 27.0.0, SVG Export Plug-In . SVG Version: 6.00 Build 0)  -->
<svg version="1.1" id="Layer_1" xmlns="http://www.w3.org/2000/svg" xmlns:xlink="http://www.w3.org/1999/xlink" x="0px" y="0px"
	 viewBox="0 0 216 216" style="enable-background:new 0 0 216 216;" xml:space="preserve">
<style type="text/css">
	.st0{fill:#FA959D;}
	.st1{fill:#3D1F91;}
</style>
<g>
	<g>
		<circle class="st1" cx="88.8" cy="29.6" r="2.8"/>
		<circle class="st1" cx="107.6" cy="29.6" r="2.8"/>
		<circle class="st1" cx="126.3" cy="29.6" r="2.8"/>
	</g>
	<g>
		<circle class="st1" cx="88.8" cy="46.9" r="2.8"/>
		<circle class="st1" cx="107.6" cy="46.9" r="2.8"/>
		<circle class="st1" cx="126.3" cy="46.9" r="2.8"/>
	</g>
	<g>
		<circle class="st1" cx="88.8" cy="64.2" r="2.8"/>
		<circle class="st1" cx="107.6" cy="64.2" r="2.8"/>
		<circle class="st1" cx="126.3" cy="64.2" r="2.8"/>
	</g>
	<g>
		<circle class="st1" cx="88.8" cy="81.6" r="2.8"/>
		<circle class="st1" cx="107.6" cy="81.6" r="2.8"/>
		<circle class="st1" cx="126.3" cy="81.6" r="2.8"/>
	</g>
	<g>
		<circle class="st1" cx="88.8" cy="98.9" r="2.8"/>
		<circle class="st1" cx="107.6" cy="98.9" r="2.8"/>
		<circle class="st1" cx="126.3" cy="98.9" r="2.8"/>
	</g>
	<g>
		<circle class="st1" cx="88.8" cy="116.2" r="2.8"/>
		<circle class="st1" cx="107.6" cy="116.2" r="2.8"/>
		<circle class="st1" cx="126.3" cy="116.2" r="2.8"/>
	</g>
	<g>
		<circle class="st1" cx="88.8" cy="133.5" r="2.8"/>
		<circle class="st1" cx="107.6" cy="133.5" r="2.8"/>
		<circle class="st1" cx="126.3" cy="133.5" r="2.8"/>
	</g>
	<g>
		<circle class="st1" cx="88.8" cy="150.8" r="2.8"/>
		<circle class="st1" cx="107.6" cy="150.8" r="2.8"/>
		<circle class="st1" cx="126.3" cy="150.8" r="2.8"/>
	</g>
	<g>
		<circle class="st1" cx="88.8" cy="168.2" r="2.8"/>
		<circle class="st1" cx="107.6" cy="168.2" r="2.8"/>
		<circle class="st1" cx="126.3" cy="168.2" r="2.8"/>
	</g>
	<g>
		<circle class="st1" cx="88.8" cy="185.5" r="2.8"/>
		<circle class="st1" cx="107.6" cy="185.5" r="2.8"/>
		<circle class="st1" cx="126.3" cy="185.5" r="2.8"/>
	</g>
</g>
</svg>
