<?xml version="1.0" encoding="utf-8"?>
<!-- Generator: Adobe Illustrator 27.0.0, SVG Export Plug-In . SVG Version: 6.00 Build 0)  -->
<svg version="1.1" id="Layer_1" xmlns="http://www.w3.org/2000/svg" xmlns:xlink="http://www.w3.org/1999/xlink" x="0px" y="0px"
	 viewBox="0 0 700 700" style="enable-background:new 0 0 700 700;" xml:space="preserve">
<style type="text/css">
	.st0{fill:#FFFFFF;}
</style>
<g>
	<path class="st0" d="M350,116.3c-128.9,0-233.8,104.9-233.8,233.8S221.1,583.9,350,583.9c25.3,0,50.1-4,73.8-11.9
		c5.2-1.7,7.9-7.3,6.2-12.4c-0.4-1.1-1-2.1-1.6-2.9c-2.5-3.1-6.8-4.6-10.8-3.2c-21.7,7.2-44.5,10.9-67.6,10.9
		c-118.1,0-214.2-96.1-214.2-214.2c0-118.1,96.1-214.3,214.2-214.3S564.2,232,564.2,350.1c0,40.2-11.2,79.4-32.4,113.3
		c-10.8,12.1-22.3,18.5-34.2,19c-10.3,0.4-19.4-3.6-25.5-7.3h0.4l6.3-6.4c0.3-0.3,0.6-0.6,0.8-1c6.5-8.5,14.1-26.1,1.7-38.5
		l-35.8-35.8c-0.7-0.7-1.5-1.3-2.4-1.8c-7.2-3.8-24.5-7.3-38,6.2l-13.9,13.9c-24,9.6-41.6,2.5-73.5-29.5c-0.2-0.2-0.5-0.5-0.8-0.7
		c-31.3-31.5-38.2-48.9-28.7-72.8l13.9-13.9c13.4-13.4,9.9-30.7,6.2-38c-0.4-0.9-1.1-1.7-1.8-2.4l-35.8-35.8
		c-12.4-12.4-30-4.8-38.5,1.7c-0.3,0.3-0.7,0.6-1,0.8l-14.6,14.6c-7.9,7.9-13.4,17.7-16.1,28.3c-7.1,28.9-7.6,88.8,69.4,165.8
		c58.7,58.7,107.6,72.4,140.2,72.4c10.1,0,18.7-1.3,25.6-3c7.8-1.9,15.1-5.4,21.6-10.3c7.8,5.5,21.6,13,38.4,13h2.1
		c17.5-0.7,33.6-9.2,48.1-25.4c0.6-0.6,1.2-1.2,1.7-2c23.5-37.2,36-80.4,36-124.6c0-128.9-104.9-233.8-233.8-233.8L350,116.3z
		 M284,416c-72.8-72.8-69.2-127.2-64.2-147.3c1.8-7.2,5.5-13.8,10.9-19.2l14-14c2.8-1.9,9.9-5.6,12.3-3.1l34.5,34.5
		c0.8,2.5,2.2,8.6-3.1,14l-15.3,15.3c-0.9,0.9-1.6,1.9-2.1,3.1c-16,37.5-0.1,63.8,32.9,96.8c0.2,0.3,0.5,0.5,0.8,0.7
		c32.6,32.4,58.9,48,96,32.2c1.2-0.5,2.2-1.2,3.1-2.1l15.3-15.3c5.3-5.3,11.4-4,14-3.1l34.5,34.5c2.5,2.5-1.2,9.6-3.1,12.3l-14,14
		c-5.4,5.3-12,9.1-19.2,10.9C411.3,485.2,356.8,488.8,284,416L284,416z"/>
</g>
</svg>
